<?xml version="1.0" encoding="UTF-8"?>
<svg xmlns="http://www.w3.org/2000/svg" xmlns:xlink="http://www.w3.org/1999/xlink" viewBox="0 0 115.71 122.36">
  <defs>
    <style>
      .cls-1 {
        isolation: isolate;
      }

      .cls-2 {
        fill: url(#linear-gradient);
      }

      .cls-2, .cls-3, .cls-4 {
        fill-rule: evenodd;
        stroke-width: 0px;
      }

      .cls-3 {
        fill: url(#linear-gradient-2);
      }

      .cls-4 {
        fill: #f5f5f5;
      }

      .cls-5 {
        mix-blend-mode: multiply;
      }
    </style>
    <linearGradient id="linear-gradient" x1="36.18" y1="40.15" x2="25.7" y2="30.32" gradientUnits="userSpaceOnUse">
      <stop offset="0" stop-color="#fff"/>
      <stop offset=".92" stop-color="#000"/>
    </linearGradient>
    <linearGradient id="linear-gradient-2" x1="12.13" y1="65.76" x2="1.66" y2="55.93" xlink:href="#linear-gradient"/>
  </defs>
  <g class="cls-1">
    <g id="Layer_1" data-name="Layer 1">
      <g>
        <path class="cls-4" d="M113.88,18.11c2.78-9.65.62-14.44-10.12-15.2-19.31-1.38-47.99,11.72-67.42,26.04,4.1,7.79,8.13,15.66,12.17,23.33.39.73.97,1.88,1.65,3.12,1.31-3.36,2.61-7.06,4.02-10.01,5.17-10.93,19.86-36.43,33.46-35.71,26.25,1.41,23.3,73.96,19.97,92.73-.87,4.95-5.03,26.86-14.6,17.76l-2.25-2.71c4.18,4.17,7.87,6.63,10.79-.01,8.05-18.31,1.61-72.88-8.71-90.63-5.68-9.79-8.36-6.18-15.1,2.1-11.03,13.58-12.72,20.18-19.28,35.51-2.59,6.05-7.59,9.36-12.94,4.32-3.21-3.01-14.64-26.13-17.55-31.63-.16-.29-.34-.62-.52-.96-1.39,1.27-2.69,2.52-3.88,3.75-3.87,4.03-7.39,8.11-9.62,12.68-.46,7.68-1.24,16.92-3.42,19.98-2.07,2.9-8.35,2.26-9.69-3.08-1.69-6.77-.75-13.27,1.82-19.29C3.97,33.55,6.05,11.34,10.41,5.45c4.41-5.96,10.48-4.09,13.96,1.84,2.56,4.33,5.03,8.77,7.48,13.26C51.59,9.05,88.08-4.54,107.48,1.47c9.28,2.87,9.59,8.49,6.4,16.63h0ZM22.52,26.73c-1.6-3.02-3.28-6.15-4.77-8.8-.92,4.27-1.64,9.73-2.18,14.68,2.24-2.12,4.58-4.09,6.96-5.88h0Z"/>
        <g class="cls-5">
          <path class="cls-2" d="M36.33,28.95c-4.16,2.56-8.11,6.04-11.78,9.99.92-.92,1.88-1.84,2.9-2.77.18.35.36.67.52.96,1.19,2.24,3.78,7.39,6.66,12.92,2.63-3.78,5.15-7.42,7.25-10.46-1.84-3.54-3.69-7.1-5.55-10.64Z"/>
          <path class="cls-3" d="M2.41,72.38c2.4,2.55,6.53,2.44,8.14.19,2.17-3.06,2.96-12.3,3.42-19.98.1-.2.21-.39.31-.58-5.09,7.47-9.16,14.97-11.86,20.37Z"/>
        </g>
      </g>
    </g>
  </g>
</svg>